<svg xmlns="http://www.w3.org/2000/svg" viewBox="0 0 211.37 68.92"><defs><style>.cls-1{fill:#fff;stroke:#000;stroke-miterlimit:10;}</style></defs><g id="Layer_2" data-name="Layer 2"><g id="Layer_1-2" data-name="Layer 1"><path class="cls-1" d="M56.65,66a7.41,7.41,0,0,1-3.4-.6,3.11,3.11,0,0,1-1.51-1.79,32.5,32.5,0,0,1-1-4.23L40.75,9a.56.56,0,0,0-.36-.28,1.81,1.81,0,0,0-.55-.09.84.84,0,0,0-.74.27L13.46,54.63a29.42,29.42,0,0,1-6.53,8.46Q3.43,66,.87,66c-.25,0-.37.18-.37.55s.12.55.37.55c.92,0,2.24-.06,4-.18s3.22-.19,4.5-.19q2.29,0,6.53.19c2.33.12,3.89.18,4.69.18.24,0,.38-.18.41-.55s-.08-.55-.32-.55a11.29,11.29,0,0,1-5.33-1A3.25,3.25,0,0,1,13.55,62q0-2.38,2.39-6.7l5-9.2H38.8l2.69,13.33a12.34,12.34,0,0,1,.37,2.94,3.21,3.21,0,0,1-1.2,2.85,7.17,7.17,0,0,1-3.95.83c-.25,0-.37.18-.37.55s.12.55.37.55q1.47,0,4.41-.18c2.21-.13,4-.19,5.33-.19s3.28.06,5.61.19q3.12.18,4.59.18c.25,0,.37-.18.37-.55S56.9,66,56.65,66ZM22.41,43.51,34,22.39l4.26,21.12Z"/><path class="cls-1" d="M97.55,33.17a6.63,6.63,0,0,0-5.61-2.71A14.88,14.88,0,0,0,82.66,34a30,30,0,0,0-7.72,9.51c-.39.73-.74,1.49-1.08,2.24L81.74,1.24c.06-.13,0-.28-.23-.46A1,1,0,0,0,80.82.5h-.18l-14.25,7c-.24.07-.32.27-.23.6s.27.51.51.51h.09A11.29,11.29,0,0,1,70.62,7.3c1.17,0,1.75.89,1.75,2.67a20.52,20.52,0,0,1-.28,3L63.64,59.13a10.6,10.6,0,0,0-.19,1.75,6.41,6.41,0,0,0,2.71,5.47q2.72,2,7.59,2a21.79,21.79,0,0,0,10.06-2.9A30.67,30.67,0,0,0,93.6,57a29.3,29.3,0,0,0,5.7-13,25.88,25.88,0,0,0,.27-3.58A12,12,0,0,0,97.55,33.17ZM90.2,46.91A37.72,37.72,0,0,1,87.26,57a19.1,19.1,0,0,1-4.69,6.52,8.38,8.38,0,0,1-5.42,2.25,5.25,5.25,0,0,1-4-1.7,6,6,0,0,1-1.61-4.27,8.48,8.48,0,0,1,.09-1.47q1.75-9.66,5.89-15.67t9.19-6a3.24,3.24,0,0,1,3,1.61,8.36,8.36,0,0,1,1,4.36A19,19,0,0,1,90.2,46.91Z"/><path class="cls-1" d="M133.35,34.18q-3.27-3.72-9.42-3.72a18.2,18.2,0,0,0-9.1,2.39,21.72,21.72,0,0,0-7.22,6.71,25,25,0,0,0-4,9.83,24.23,24.23,0,0,0-.46,5q0,6.24,3.17,10.15t9.23,3.91a18.79,18.79,0,0,0,8.69-2.21,21.53,21.53,0,0,0,7.44-6.48,25.24,25.24,0,0,0,4.37-10.34,27.23,27.23,0,0,0,.55-5.24Q136.61,37.91,133.35,34.18ZM127,53.44a25.57,25.57,0,0,1-3.17,9.28q-2.16,3.41-5.1,3.4-3.14,0-4.87-3.72a22.87,22.87,0,0,1-1.75-9.7,40.91,40.91,0,0,1,.64-7.26q1.11-6.34,3.27-9.56t4.91-3.21c2.09,0,3.72,1.25,4.92,3.76a22.89,22.89,0,0,1,1.79,9.75A40.91,40.91,0,0,1,127,53.44Z"/><path class="cls-1" d="M180.26,60a.51.51,0,0,0-.46-.32.37.37,0,0,0-.27.09q-3.41,3.67-5.33,3.67c-1,0-1.57-.82-1.57-2.48a9,9,0,0,1,.19-2l3.77-20.49c.06-.37.39-2,1-4.87l.36-1.93c0-.19-.24-.36-.73-.51a8.51,8.51,0,0,0-2.3-.23q-4.68,0-5.15,1.84l-.42,2.45a89.26,89.26,0,0,1-3.62,13.91,36.67,36.67,0,0,1-5.33,10.43q-2.85,3.54-5.51,3.54c-2,0-2.94-1.5-2.94-4.51a18.35,18.35,0,0,1,.46-4.13l2.84-14.61a22.23,22.23,0,0,0,.46-3.77c0-3.5-1.5-5.24-4.5-5.24a8.14,8.14,0,0,0-4.92,1.74A36.09,36.09,0,0,0,140.84,38a.44.44,0,0,0-.1.59.54.54,0,0,0,.46.33.52.52,0,0,0,.37-.19,32.86,32.86,0,0,1,2.8-2.43,3.43,3.43,0,0,1,2-.78c1,0,1.47.7,1.47,2.11a11.48,11.48,0,0,1-.28,2.21l-3.21,16.35a22.29,22.29,0,0,0-.46,4.6q0,7.53,6.34,7.54,4.68,0,8.87-4.32t7.39-12.3L165,60.05a18.07,18.07,0,0,0-.28,3q0,4.88,4.32,4.87a9.45,9.45,0,0,0,5.28-1.75,30.66,30.66,0,0,0,5.93-5.6A.54.54,0,0,0,180.26,60Z"/><path class="cls-1" d="M210.22,31.66l-3.31.18c-2.57.29-5.13.43-7.67.49l1.33-7.48q.09-.18-.27-.36a1.88,1.88,0,0,0-.83-.19.71.71,0,0,0-.64.28q-4.32,8.09-11.67,8.09c-.19,0-.28.27-.28.82s.09.65.28.65a5.38,5.38,0,0,1,2.66.46,2,2,0,0,1,.74,1.83,15.86,15.86,0,0,1-.28,2.58L186.7,58.49a18,18,0,0,0-.28,3q0,6.72,7.44,6.71a13.28,13.28,0,0,0,6.48-1.79,37.65,37.65,0,0,0,7.49-5.83.35.35,0,0,0,0-.56.89.89,0,0,0-.64-.27h-.09q-4.23,3.4-7.72,3.4a5.27,5.27,0,0,1-3.54-1A4.08,4.08,0,0,1,194.69,59a19.88,19.88,0,0,1,.18-2l3.88-21.84a40.45,40.45,0,0,1,5.59.52c2.21.37,3.37.55,3.49.55q.91,0,2-1.47a4.62,4.62,0,0,0,1.06-2.21C210.87,31.93,210.65,31.66,210.22,31.66Z"/></g></g></svg>