<svg xmlns="http://www.w3.org/2000/svg" viewBox="0 0 705.77 678.05"><g id="Layer_2" data-name="Layer 2"><g id="Layer_1-2" data-name="Layer 1"><path d="M285.16,0c-14.92,97.2-21.81,195.29-23.87,293.56C227,236.35,191.51,178.72,165.15,117.27a934.17,934.17,0,0,0-25.89,165.66c-10.64.62-21.27,1.25-31.9,1.95,7.36-88.61,28.37-174.52,68.85-254,5.38,47.9,35.15,95.22,57.78,136.42,5.56-54.26,13.5-108,24.95-161.39C269.28,3.21,274.53,2,285.16,0Z"/><path d="M320.33,268.15c-11-10.11-17.09-22.88-21.79-36.43-5.86-16.9-6.58-36.27-5.79-53.88s3.2-36.48,10-52.95c5.23-12.6,11.64-25.77,21.94-34.17,10-8.14,18.92-12.24,31-12.34,10-.08,21.77,3.26,30.38,11.25,9.4,8.74,16.28,20.54,20.48,32.76,5.88,17.06,8.15,34.77,9.05,52.5.12,2.49.15,5.2.17,8s0,5.07-.13,6.77Q363.2,188,310.79,189.4q.51-16.83,1.11-33.66c24.87-.85,49.67-1.05,74.54-.61-3.31,7.59-5,11.43-8.45,19.17a40.91,40.91,0,0,0,1.8-6.94,38.51,38.51,0,0,0,.76-7.33c-.15-9.49-1.33-17.52-3.48-24.13s-5.1-11.82-8.86-15.65a17.72,17.72,0,0,0-13.14-5.7,20.29,20.29,0,0,0-15.46,6.87q-6.3,6.84-9.95,20.29c-3,11-4.11,22.77-4.41,33.72-.3,10.77.18,22.37,2.78,33.29,2.18,9.17,5.58,16.28,10.22,21.21a22.47,22.47,0,0,0,17,7.38,27.79,27.79,0,0,0,19.28-7.21c5.28-4.79,9.58-12,12.88-21.42q14.69,7.84,29.31,15.79c-5.45,15.82-11.8,30.87-24,42.51-10.06,9.57-23.89,14.43-37.74,14.44A51.07,51.07,0,0,1,320.33,268.15Z"/><path d="M468,231.37a24.29,24.29,0,0,0,7.32,9.76A17.3,17.3,0,0,0,485,244.8a17.71,17.71,0,0,0,13.05-4.59c3.72-3.3,6.57-8.14,8.51-14.49s2.5-14,1.67-23c2.44,10,3.63,15,5.94,25,.17,10.43.32,20.92-4,30.67-3.59,8.22-8.5,14.52-14.75,18.62a34.27,34.27,0,0,1-20.05,5.91q-10.89-.29-20.55-8c-6.43-5.15-11.75-12.58-15.8-22.16-4.61-10.91-6.46-22.92-6.83-34.73-.46-14.73,1.14-31.87,9.6-44.34,6.86-10.1,18.85-14.83,30.83-13.55a50.09,50.09,0,0,1,18.63,5.5,63.53,63.53,0,0,1,14.2,10.3,50.82,50.82,0,0,1,8.85,10.9c1.07,9.64,1.56,14.51,2.47,24.32a57.3,57.3,0,0,0-15.57-13.59A41,41,0,0,0,484,192q-7.23-.6-11.64,2.19a15.19,15.19,0,0,0-6.26,8.32q-1.86,5.53-1.4,14A42.33,42.33,0,0,0,468,231.37ZM433.27,102.21a82.93,82.93,0,0,1,18.51-12c7.2-3.5,15.34-4.45,24.57-2.9A55.52,55.52,0,0,1,500,97.75c7.27,5.35,14.38,13.79,18.91,21.42,5.65,9.53,8.57,20.14,11,31a1252.94,1252.94,0,0,1,13.92,130.94q-15.27-.72-30.54-1.3-2.75-61.92-10.13-123.35a56.75,56.75,0,0,0-3-12.95,32,32,0,0,0-5.39-9.35,24.35,24.35,0,0,0-7.35-6,26.54,26.54,0,0,0-8.82-2.72A31.24,31.24,0,0,0,465,126.51,34.63,34.63,0,0,0,454,132.05a42,42,0,0,0-6.7,6.17Q440.31,120.2,433.27,102.21Z"/><path d="M589.63,120.47q6.47,18.14,11.76,36.68c-19.74-5.41-39.67-9.9-59.72-14q-3.87-20-8.64-39.78C552.15,108.17,571.06,113.9,589.63,120.47ZM554.86,63.39c29.21,70.84,45.23,144.9,51.38,221.18q-14.49-.94-29-1.75C571.94,204.64,558.08,128,532.38,53.87,541.53,57.45,546,59.36,554.86,63.39Z"/><path d="M30.2,318.27c-2.71,81.58,14,159.57,52.12,231.88-10-5.13-14.84-7.8-24.27-13.36C16.48,470.6-2.68,397.64.3,319.56Q15.24,318.87,30.2,318.27Zm43,227.06c-7-12.31-13.34-24.73-19.31-37.54,10.22,4.06,15.46,6,26.17,9.75,5.83,2,10.91,2.58,15.36,1.49s7.86-4.13,10.35-9.23,3.86-12.38,4.1-21.77c.31-11.93-1.24-24-3.11-35.8a246.47,246.47,0,0,0-8.84-38.06c-3-9.1-7.52-19.17-13.16-27.06-5.1-7.14-10.69-12.47-16.86-15.89a42.66,42.66,0,0,0-19.12-5.49q-14.83-.6-29.66-1.31c-.65-15.28-.69-30.4-.13-45.69q15.38-.64,30.75-1.22C67,318.4,79,322.44,91.81,333c14.33,11.79,23.82,31.52,30.53,49.26,9,24,14,49.35,17.25,74.37,2.87,22.06,5.61,45.89,2.41,67.82-1.76,12-3.75,26.09-13.81,34.51-8.82,7.4-20.67,2.31-29.88-1C89.82,554.05,81.41,549.81,73.19,545.33Z"/><path d="M202.45,588c-10.36-9.33-18.09-22-24.83-34.46-8-14.78-12.92-31.86-15.76-48.49-2.7-15.79-3.63-33,0-48.74,2.74-11.91,8.56-23.63,17.45-32s20.51-10.5,31.46-10.67c11.46-.18,23.78,5.08,32.76,13.21,10.76,9.73,17.11,22.32,22,35.29,6.27,16.75,8.52,35.49,9.85,53.59.18,2.46.28,5.1.38,7.82s.13,4.91.09,6.53q-48.06-3.76-95.61-11.2-2.56-15.48-4.6-31.06c23.46,3.05,47,5.37,70.55,7.29-2.81,7.35-4.17,11-6.8,18.13a36.6,36.6,0,0,0,1.18-6.55,37.88,37.88,0,0,0,.23-7.1,93.37,93.37,0,0,0-4.88-24.26,46.76,46.76,0,0,0-9.78-16.5c-4-4.17-8.55-6.41-13.57-6.77-6.15-.43-11.09,1.48-14.78,5.67s-6.14,10.59-7.33,19.08c-1.47,10.52-.77,21.52.56,31.58A130.92,130.92,0,0,0,198.57,539c3.35,8.45,7.37,15.19,12,20.16s9.76,8,15.35,8.88c6.32,1,11.46-.24,15.49-3.87s7.1-9.6,9.29-18q13.74,8.31,27.55,16.52c-3.81,12.86-7.9,25.78-17.62,35.36-6.74,6.64-20,8.85-28.66,6.82C220.88,602.27,210.72,595.42,202.45,588Z"/><path d="M320.05,567.23a56.09,56.09,0,0,0,11.61,10.24,20.29,20.29,0,0,0,10.15,3.46,10.7,10.7,0,0,0,9.47-4.45c2.2-3.05,3.32-7.26,3.29-12.66a25.5,25.5,0,0,0-2.87-12.44,30.82,30.82,0,0,0-8.34-9.34c-3.65-2.79-8.58-5.7-14-9a98,98,0,0,1-15.66-12.33c-5.1-4.77-9.41-11.1-13-18.93-4.33-9.52-5.23-20-6-30.18-.7-9.41.89-21.23,4.75-30,3.6-8.15,8.61-14.46,15.07-18.65a38.79,38.79,0,0,1,21.83-6.23,43.7,43.7,0,0,1,19.33,4.54,67,67,0,0,1,16.65,11.74,77.22,77.22,0,0,1,13.22,16.86q-7.53,17.44-15.07,34.88a64.57,64.57,0,0,0-15.39-19c-6-4.94-11.9-7.46-17.61-7.52-3.81,0-6.78,1.17-8.89,3.6s-3.13,6.1-3,11A21.12,21.12,0,0,0,329,484.36a31.58,31.58,0,0,0,9.32,8.92c4,2.61,8.66,6.06,13.73,9.5a148.93,148.93,0,0,1,17.38,13.29,51.53,51.53,0,0,1,12.39,18c3.46,8.19,4.29,19.25,4,27.76-.45,14.36-3.31,30.62-11.59,43a33.17,33.17,0,0,1-28.47,14.89,42.17,42.17,0,0,1-20.4-5.71,71.49,71.49,0,0,1-17.26-14.33,159,159,0,0,1-14.64-19.18q6.33-15.76,12.88-31.44A156.45,156.45,0,0,0,320.05,567.23Z"/><path d="M416.58,316.62c4-6.18,8.76-9.23,14.33-9.18s10.3,3.18,14.23,9.36,5.92,14.09,5.92,23.77c0,9.38-2,17.2-5.92,23.54s-8.68,9.54-14.24,9.59-10.32-3.07-14.32-9.41-6-14.23-6-23.72Q410.59,325.9,416.58,316.62Zm29.51,103.53c-1.88,63.23-5.65,126.33-11.87,189.29-9.3,1.08-18.66,1.94-28,2.58,3.87-63.67,6.21-127.38,7.38-191.15Q429.85,420.56,446.09,420.15Z"/><path d="M478.74,460.27c5.41-12.74,12.17-25.07,22.14-34.86,6.46-6.35,17.75-12.43,27.09-12.8a29.47,29.47,0,0,1,23.93,10.17c7.58,8.47,11.58,19.86,13.37,31,2.57,15.93,1.41,32.83-1.38,48.54a194.75,194.75,0,0,1-15,48.16A134.39,134.39,0,0,1,527.53,583c-5.61,6.23-14.91,13.06-23.4,14.95-7.84,1.75-14.76.14-20.94-5.24-8.07-7-11.22-17.95-13.82-27.5-4.32-15.88-3.41-34.13-2.05-50.5C468.83,496.59,471.57,477.17,478.74,460.27ZM484.25,613c-1.25,7.19-1.39,13-.48,17.61s2.72,7.72,5.42,9.52,6.21,2,10.64.61c4.05-1.27,8.33-4.19,12.92-8.73s9-10.68,13.4-18.33a113.89,113.89,0,0,0,11-27.83c14.58-56.35,23.59-113.31,28.2-171.31q14.57-1,29.11-2.14C589.13,468.91,578.73,524,562,578.29c-5.91,16.92-12.76,33.33-22.41,48.15a197.24,197.24,0,0,1-25.51,32.07c-6.44,6.42-15.33,13.43-24,16.82-9.3,3.63-16.43,3.64-21.66,0s-8.76-10.46-10.44-20.41c-2.05-12.13-1.7-24.7-.32-36.93C468.39,616.21,473.72,615.21,484.25,613Zm15.3-74.48c1.58,7,4.17,12.1,7.84,15.19A14.39,14.39,0,0,0,520,556.91c4.19-.8,8.6-3.42,13.27-7.81s9-10.42,12.88-17.94a92.74,92.74,0,0,0,8.62-27.32c1.25-8.07,1.7-15.24,1.06-21.27a39.09,39.09,0,0,0-4.28-14.94,24.36,24.36,0,0,0-7.88-8.83,15.29,15.29,0,0,0-9.81-2.48c-5.21.47-10.33,2.94-15.31,7.45S509.4,474.6,506,482.57c-3.79,8.78-6,19.54-6.94,28.94C497.93,522.35,498,531.45,499.55,538.5Z"/><path d="M676.16,441.27c-1.19-4.89-4.61-6.95-10.12-6a21.08,21.08,0,0,0-10.75,5.7,42.42,42.42,0,0,0-9,12.59,86.24,86.24,0,0,0-6.2,17.9,585.88,585.88,0,0,1-31.27,91.68c-9.37,4.14-14.16,6.12-23.91,9.88,19.64-52.9,31.86-107,38.08-163q14.28-1.29,28.55-2.76c-1.21,10.26-1.93,15.34-3.59,25.4,4.52-9.77,9.46-17.44,15-22.89s11.71-8.49,18.5-9.24c11.37-1.25,19.12,3.21,22.27,12.44,4.47,13.05.68,26.47-2.83,39.45a405.64,405.64,0,0,1-40.56,84.42c-8.66,5.1-13.11,7.56-22.23,12.3a482.93,482.93,0,0,0,35.63-85.53C676.65,453.61,677.36,446.16,676.16,441.27Z"/></g></g></svg>