<svg xmlns="http://www.w3.org/2000/svg" viewBox="0 0 755.45 470.55"><g id="Layer_2" data-name="Layer 2"><g id="Layer_1-2" data-name="Layer 1"><path d="M293.22,9.45V207.9L150.12,57.78V198.45h-23V0l143.1,150.12V9.45Z"/><path d="M437.4,101.25a50.78,50.78,0,0,0-20.12-22q-13.09-7.69-31.45-7.7t-32.27,8.1A55.82,55.82,0,0,0,332,102.33q-7.69,14.58-7.69,34,0,19.17,7.42,33.75a56.07,56.07,0,0,0,20.79,22.82q13.36,8.24,30.65,8.23,20,0,34.69-8t24.44-23.63l-17.55-11.07q-6.75,11.34-16.47,16.88a44.49,44.49,0,0,1-22.41,5.53q-12.69,0-21.6-5.4a34,34,0,0,1-13.5-15.66,55,55,0,0,1-4.32-18.09h97.74c0-.36,0-1.21.13-2.56s.14-2.66.14-3.92Q444.42,115.56,437.4,101.25Zm-72.77-5.53q8.78-5.27,21.2-5.27A35.64,35.64,0,0,1,404.19,95a32.65,32.65,0,0,1,12.28,12.69,37.44,37.44,0,0,1,4.33,15.66H347.24a49.16,49.16,0,0,1,3.89-12.56A34.58,34.58,0,0,1,364.63,95.72Z"/><path d="M561.46,88.83a38.2,38.2,0,0,0-17-12.82q-10.94-4.45-25.51-4.46-17.28,0-29.57,5.13t-19.3,10.26l10.53,15.93q3-2.16,8.1-5.13a56.75,56.75,0,0,1,12.55-5.13,59.42,59.42,0,0,1,16.61-2.16,52.32,52.32,0,0,1,10.8,1.08,27.87,27.87,0,0,1,9,3.51,16.6,16.6,0,0,1,6.08,6.62,23.16,23.16,0,0,1,2.16,10.66v17.94a60.34,60.34,0,0,0-12.83-5.93q-9-3.09-22.54-3.1-22.95,0-35.78,10.94t-12.82,29q0,12.69,5.94,21.6a38.73,38.73,0,0,0,15.79,13.64,48.55,48.55,0,0,0,21.2,4.72,60.09,60.09,0,0,0,20.65-3.78,43.5,43.5,0,0,0,17.55-11.61,26.62,26.62,0,0,0,2.84-3.73v16.42h21.6v-89.1Q567.54,97.2,561.46,88.83ZM541.21,167a31.87,31.87,0,0,1-12.69,11.47,39,39,0,0,1-17.95,4.05A35.5,35.5,0,0,1,496.66,180a20.57,20.57,0,0,1-9.45-7.7,21.6,21.6,0,0,1-3.37-12.15,20.44,20.44,0,0,1,3.24-11.61,20.87,20.87,0,0,1,9.85-7.56q6.61-2.7,17.15-2.7a77.81,77.81,0,0,1,21.33,2.84,62.68,62.68,0,0,1,10.53,4.08v4.69A31.26,31.26,0,0,1,541.21,167Z"/><path d="M139.05,264.41a86.32,86.32,0,0,0-33.48-33.08Q84.24,219.45,56.7,219.45H0v189H56.7q27.54,0,48.87-11.88a86.3,86.3,0,0,0,33.48-33.07Q151.2,342.31,151.2,314T139.05,264.41Zm-15.93,79.24a63.37,63.37,0,0,1-14.58,22.55,64.1,64.1,0,0,1-22.68,14.31,82,82,0,0,1-29.16,5H23V242.4H56.7a82,82,0,0,1,29.16,5,64.1,64.1,0,0,1,22.68,14.31,63.32,63.32,0,0,1,14.58,22.54,88.54,88.54,0,0,1,0,59.4Z"/><path d="M284.58,311.25a50.78,50.78,0,0,0-20.12-22q-13.09-7.69-31.45-7.7t-32.27,8.1a55.82,55.82,0,0,0-21.6,22.68q-7.69,14.58-7.69,34,0,19.17,7.42,33.75a56.07,56.07,0,0,0,20.79,22.82q13.36,8.24,30.65,8.23,20,0,34.69-8t24.44-23.63l-17.55-11.07q-6.75,11.34-16.47,16.88A44.49,44.49,0,0,1,233,390.9q-12.69,0-21.6-5.4a34,34,0,0,1-13.5-15.66,55,55,0,0,1-4.32-18.09h97.74c0-.36,0-1.21.13-2.56s.14-2.66.14-3.92Q291.6,325.56,284.58,311.25Zm-72.77-5.53q8.77-5.27,21.2-5.27A35.64,35.64,0,0,1,251.37,305a32.65,32.65,0,0,1,12.28,12.69A37.44,37.44,0,0,1,268,333.39H194.42a49,49,0,0,1,3.89-12.55A34.55,34.55,0,0,1,211.81,305.72Z"/><path d="M335.07,380.91a36.9,36.9,0,0,0,11.2,7.69,33.56,33.56,0,0,0,13.91,2.84q9.17,0,14.44-4.18a13.87,13.87,0,0,0,5.27-11.48,15.36,15.36,0,0,0-4.19-10.93A35.4,35.4,0,0,0,365,357.29q-6.48-3.1-13.77-5.81a156.6,156.6,0,0,1-16.34-7.69,43.11,43.11,0,0,1-13.77-11.61q-5.54-7.15-5.53-18,0-11.07,5.8-18.36a34.37,34.37,0,0,1,15.12-10.8,54.33,54.33,0,0,1,19.31-3.51,53.72,53.72,0,0,1,18.76,3.24,55.32,55.32,0,0,1,15.53,8.64,40.41,40.41,0,0,1,10.53,12.42L383.4,316.92a42.93,42.93,0,0,0-12.83-11.61,33.32,33.32,0,0,0-17.41-4.59,21.84,21.84,0,0,0-11.61,3q-4.86,3-4.86,9.18a11.85,11.85,0,0,0,3.78,8.64,37,37,0,0,0,9.72,6.75q5.94,3,12.42,5.67a167.59,167.59,0,0,1,19.71,9.32,44.64,44.64,0,0,1,14.17,12q5.26,7,5.27,18.09a35.16,35.16,0,0,1-11.75,27q-11.75,10.8-30.91,10.8a55,55,0,0,1-49.68-30.24l17-10.53A69,69,0,0,0,335.07,380.91Z"/><path d="M434.56,222.42A14.48,14.48,0,0,1,445,218.1,14.75,14.75,0,0,1,459.81,233a14.48,14.48,0,0,1-4.32,10.4A14.11,14.11,0,0,1,445,247.8,15.21,15.21,0,0,1,430.11,233,14.11,14.11,0,0,1,434.56,222.42Zm21.2,61.83v124.2h-21.6V284.25Z"/><path d="M593.46,284.25v21.5a50.41,50.41,0,0,0-15.12-16.37q-11.62-7.83-27.27-7.83a62.08,62.08,0,0,0-30.78,7.83,58.41,58.41,0,0,0-22.41,22.28q-8.38,14.44-8.37,34.69,0,20,8.37,34.56a58.14,58.14,0,0,0,22.41,22.41,62.08,62.08,0,0,0,30.78,7.83q15.64,0,27.27-7.83a50,50,0,0,0,15.12-16.45v18.88q0,15.66-6.08,25.52a37.85,37.85,0,0,1-15.25,14.44,41.32,41.32,0,0,1-18.63,4.59q-12.15,0-21.06-4.72a35.63,35.63,0,0,1-13.77-12.42,30.54,30.54,0,0,1-4.86-16.61H491.94q0,15.93,7.83,28.22a52.16,52.16,0,0,0,21.73,19q13.9,6.75,32,6.75a63.62,63.62,0,0,0,29.7-7.29,58.47,58.47,0,0,0,22.95-21.73q8.91-14.46,8.91-35.78V284.25Zm-5.94,86.4a40.75,40.75,0,0,1-15.12,15.12,37.83,37.83,0,0,1-18.63,5.13,44.43,44.43,0,0,1-21.06-5.13,38.58,38.58,0,0,1-15.53-15.12q-5.81-10-5.8-24.3t5.8-24.3a38.58,38.58,0,0,1,15.53-15.12,44.43,44.43,0,0,1,21.06-5.13,35.86,35.86,0,0,1,14,3,41.31,41.31,0,0,1,12.82,8.64A42.59,42.59,0,0,1,590,327.32a48.36,48.36,0,0,1,3.51,19Q593.46,360.66,587.52,370.65Z"/><path d="M727.1,309.63q-6.75-7.83-19.71-7.83a34,34,0,0,0-16.6,3.92,27.53,27.53,0,0,0-11.07,10.93,32.7,32.7,0,0,0-3.92,16.2v75.6H654.2V284.25h21.6v19.44Q682,292.35,691.33,287a42,42,0,0,1,21.46-5.4q19.71,0,31.19,13.1t11.47,35.5v78.3h-21.6v-75.6Q733.85,317.46,727.1,309.63Z"/><polygon points="585.09 74.25 605.34 74.25 605.34 31.05 626.94 31.05 626.94 74.25 647.19 74.25 647.19 94.5 626.94 94.5 626.94 198.45 605.34 198.45 605.34 94.5 585.09 94.5 585.09 74.25"/></g></g></svg>